<svg width="58" height="58" viewBox="0 0 58 58" fill="none" xmlns="http://www.w3.org/2000/svg">
<path d="M52.5399 12.7765C47.114 8.5735 42.3265 12.5804 37.8286 19.3264C33.3307 26.0724 31.7444 37.2408 31.7444 37.2408C31.4992 29.8185 33.0315 22.445 36.2136 15.7349C40.859 6.10603 48.5006 7.534 48.5006 7.534C43.1632 2.68597 36.2114 0 29.0009 0C21.7904 0 14.8386 2.68597 9.50121 7.534C9.50121 7.534 17.141 6.09524 21.7846 15.7277C24.9682 22.44 26.5017 29.8158 26.2574 37.2408C26.2574 37.2408 24.6657 26.0724 20.1696 19.3264C15.6735 12.5804 10.8842 8.5735 5.4583 12.7765C0.0323728 16.9795 0 29.0093 0 29.0093C0 36.7006 3.05535 44.0768 8.4939 49.5154C13.9325 54.9539 21.3087 58.0093 29 58.0093C36.6913 58.0093 44.0675 54.9539 49.5061 49.5154C54.9447 44.0768 58 36.7006 58 29.0093C58 29.0093 57.9658 16.9813 52.5399 12.7765ZM6.19386 31.5415C6.19386 31.5415 4.83603 23.8675 10.5389 23.8675C16.2418 23.8675 19.8099 32.5918 19.8099 32.5918C22.1128 38.7074 23.7516 45.0528 24.6981 51.5187C19.8874 50.5955 15.4975 48.1594 12.1688 44.5657C8.84004 40.972 6.74661 36.4087 6.19386 31.5415ZM51.8115 31.5415C51.2582 36.409 49.1644 40.9724 45.8354 44.5663C42.5065 48.1603 38.1164 50.5968 33.3055 51.5205C34.2528 45.0548 35.8916 38.7094 38.1937 32.5936C38.1937 32.5936 41.7582 23.8693 47.4629 23.8693C53.1676 23.8693 51.8115 31.5415 51.8115 31.5415Z" fill="#EDAA00"/>
</svg>
